<?xml version="1.0" encoding="utf-8"?>
<!-- Generator: Adobe Illustrator 23.0.1, SVG Export Plug-In . SVG Version: 6.00 Build 0)  -->
<svg version="1.1" id="Layer_1" xmlns="http://www.w3.org/2000/svg" xmlns:xlink="http://www.w3.org/1999/xlink" x="0px" y="0px"
	 viewBox="0 0 39 34" style="enable-background:new 0 0 39 34;" xml:space="preserve">
<style type="text/css">
	.st0{fill:#1C2F68;}
	.st1{fill:#2E59A6;}
	.st2{fill:#F55200;}
</style>
<g>
	<path class="st0" d="M29.6-0.2L29.6-0.2L10.6-0.3c-0.4,0-0.7,0.2-0.9,0.5L6.3,6.1C5.9,6.8,6.4,7.7,7.3,7.7h17.2
		c0.4,0,0.8-0.2,0.9-0.5L29.6-0.2z"/>
	<path class="st1" d="M19.1,20h12.6c0.2,0,0.4,0.1,0.5,0.3l2.1,3.2c0.3,0.4,0.8,0.4,1.1,0l3.8-6.5c0.1-0.2,0.1-0.4,0-0.6l-2.7-4.7
		c-0.1-0.2-0.3-0.3-0.5-0.3H23.4c-0.2,0-0.4,0.1-0.5,0.3l-4.2,7.5C18.4,19.5,18.7,20,19.1,20z"/>
	<polygon class="st2" points="4.8,8.7 4.8,8.7 4.8,8.7 	"/>
	<path class="st1" d="M4.8,8.7L4.8,8.7L0.6,16c-0.2,0.4-0.2,0.9,0,1.3l9,15.7c0.2,0.4,0.6,0.6,1.1,0.6h18.1c0.4,0,0.9-0.2,1.1-0.6
		l3.4-6c0.5-0.8-0.1-1.9-1.1-1.9H15.9c-0.4,0-0.8-0.2-1.1-0.6L4.8,8.7z"/>
</g>
</svg>
