<?xml version="1.0" encoding="utf-8"?>
<!-- Generator: Adobe Illustrator 23.0.1, SVG Export Plug-In . SVG Version: 6.00 Build 0)  -->
<svg version="1.1" id="Layer_1" xmlns="http://www.w3.org/2000/svg" xmlns:xlink="http://www.w3.org/1999/xlink" x="0px" y="0px"
	 viewBox="0 0 220 30" style="enable-background:new 0 0 220 30;" xml:space="preserve">
<style type="text/css">
	.st0{fill:#1C2F68;}
</style>
<g>
	<path class="st0" d="M16.8,26.7c6.9,0,12.2-5.2,12.2-12.1v-1.8H16V18h6.5c-0.7,1.7-2.7,3.3-5.6,3.3c-3.7,0-6.5-2.8-6.5-6.6
		c0-3.8,2.7-6.5,6.5-6.5c2.3,0,4.3,1,5.2,2.6l0.1,0.3h6.4l-0.2-0.6c-1.4-4.7-6-7.7-11.7-7.7C9.7,2.6,4.5,7.7,4.5,14.7
		C4.5,21.6,9.7,26.7,16.8,26.7z"/>
	<path class="st0" d="M44.6,26.2h6.9L46.2,18c2.5-1.4,3.8-3.7,3.8-6.8c0-5-3.6-8-9.4-8h-9.4v23h5.9v-6.9h3.1L44.6,26.2z M37.2,8.5
		h3.2c1.4,0,3.7,0.3,3.7,2.7c0,2.3-2.3,2.7-3.7,2.7h-3.2V8.5z"/>
	<rect x="52.9" y="3.2" class="st0" width="5.9" height="23"/>
	<polygon class="st0" points="83.1,25.9 83.1,2.9 77.2,2.9 77.2,15.5 67,3.2 62.1,3.2 62.1,26.2 68,26.2 68,13.6 78.3,25.9 	"/>
	<polygon class="st0" points="105.4,3.2 85.2,3.2 85.2,8.5 92.4,8.5 92.4,26.2 98.3,26.2 98.3,8.5 105.4,8.5 	"/>
	<path class="st0" d="M144.5,26.2h6.6l-8.9-23h-5.8l-8.8,22.7l-5.1-7.9c2.5-1.4,3.8-3.7,3.8-6.8c0-5-3.6-8-9.4-8h-9.4v23h5.9v-6.9
		h3.1l4.3,6.9h6.6h0.3h5.8l1.5-4.3h7.8L144.5,26.2z M113.5,8.5h3.2c1.4,0,3.7,0.3,3.7,2.7c0,2.3-2.3,2.7-3.7,2.7h-3.2V8.5z
		 M141.1,16.6H137l2-5.7L141.1,16.6z"/>
	<path class="st0" d="M161.5,3.2h-9v23h9c7.5,0,12.3-4.5,12.3-11.5C173.8,7.8,168.9,3.2,161.5,3.2z M161.6,20.8h-3.2V8.5h3.2
		c4,0,6.3,2.2,6.3,6.2C167.9,18.6,165.6,20.8,161.6,20.8z"/>
	<polygon class="st0" points="193.8,20.9 182.2,20.9 182.2,17.2 192.7,17.2 192.7,11.9 182.2,11.9 182.2,8.4 193.6,8.4 193.6,3.2 
		176.2,3.2 176.2,26.2 193.8,26.2 	"/>
	<path class="st0" d="M215.3,11.2c0-5-3.6-8-9.4-8h-9.4v23h5.9v-6.9h3.1l4.3,6.9h6.9l-5.3-8.2C214,16.6,215.3,14.2,215.3,11.2z
		 M202.5,8.5h3.2c1.4,0,3.7,0.3,3.7,2.7c0,2.3-2.3,2.7-3.7,2.7h-3.2V8.5z"/>
</g>
</svg>
